<?xml version="1.0" encoding="UTF-8" standalone="no"?>
<!-- Created with Inkscape (http://www.inkscape.org/) -->

<svg
   version="1.1"
   id="svg24486"
   width="63.972664"
   height="45.402332"
   xmlns:inkscape="http://www.inkscape.org/namespaces/inkscape"
   xmlns:sodipodi="http://sodipodi.sourceforge.net/DTD/sodipodi-0.dtd"
   xmlns="http://www.w3.org/2000/svg"
   xmlns:svg="http://www.w3.org/2000/svg">
  <defs
     id="defs24490" />
  <sodipodi:namedview
     id="namedview24488"
     pagecolor="#505050"
     bordercolor="#ffffff"
     borderopacity="1"
     inkscape:pageshadow="0"
     inkscape:pageopacity="0"
     inkscape:pagecheckerboard="1" />
  <inkscape:clipboard
     style="font-variation-settings:normal;opacity:1;vector-effect:none;fill:#616161;fill-opacity:1;stroke:none;stroke-width:4.31958425;stroke-linecap:square;stroke-linejoin:miter;stroke-miterlimit:4;stroke-dasharray:none;stroke-dashoffset:0;stroke-opacity:1;-inkscape-stroke:none;stop-color:#000000;stop-opacity:1"
     min="700.16425,5655.9742"
     max="764.13691,5701.3765"
     geom-min="700.16425,5655.9742"
     geom-max="764.13691,5701.3765" />
  <g
     id="g24492"
     transform="matrix(3.7795276,0,0,3.7795276,-700.16425,-5655.9742)">
    <path
       id="path132919"
       d="m 191.08438,1496.4765 -0.28703,0.1665 -2.91489,1.6926 v 3.0546 l -2.63067,1.5274 v 3.7125 l 3.20211,1.8591 2.63048,-1.5272 2.63046,1.5272 2.63048,-1.5272 2.63067,1.5272 3.2019,-1.8591 v -3.7125 l -2.63045,-1.5274 v -3.0546 l -3.20212,-1.8591 -2.63048,1.5272 z m 5.26094,1.3215 1.7296,1.0041 -2.06293,1.1978 v 2.6677 l -1.9638,-1.1403 v -2.2845 l 1.20725,0.6994 0.33429,-0.5768 -0.97307,-0.5637 z m -5.26094,0 1.72941,1.0041 -2.06276,1.1976 v 2.6677 l -1.72568,-1.0019 v -2.2849 l 0.96915,0.5614 0.33408,-0.5768 -0.97287,-0.5637 z m 2.29713,1.4453 v 2.2838 l -1.9638,1.1403 v -2.2838 z m 5.02302,0.1382 v 2.2838 l -1.72586,1.0021 v -2.2838 z m -4.68969,2.723 1.96677,1.1417 -2.3001,1.3355 v 2.3921 l -1.9638,-1.14 v -2.0092 l 1.20727,0.6994 0.33408,-0.577 -1.21022,-0.7009 z m -5.02376,0.1376 1.7294,1.0041 -2.29993,1.3355 v 2.3924 l -1.72587,-1.0021 v -2.0094 l 0.96915,0.5614 0.33427,-0.577 -0.97305,-0.5634 z m 10.04774,0 1.96675,1.1418 -2.06293,1.1978 v 2.3924 l -1.96397,-1.1405 v -2.009 l 1.20744,0.6994 0.33408,-0.577 -1.21041,-0.7011 z m -7.98779,1.5832 v 2.0085 l -1.9638,1.14 v -2.0082 z m 5.26096,0 v 2.0085 l -1.9638,1.14 v -2.0082 z m 5.02302,0.1383 v 2.0084 l -1.72569,1.0021 v -2.0085 z"
       style="color:#000000;font-style:normal;font-variant:normal;font-weight:normal;font-stretch:normal;font-size:medium;line-height:normal;font-family:sans-serif;font-variant-ligatures:normal;font-variant-position:normal;font-variant-caps:normal;font-variant-numeric:normal;font-variant-alternates:normal;font-feature-settings:normal;text-indent:0;text-align:start;text-decoration:none;text-decoration-line:none;text-decoration-style:solid;text-decoration-color:#000000;letter-spacing:normal;word-spacing:normal;text-transform:none;writing-mode:lr-tb;direction:ltr;text-orientation:mixed;dominant-baseline:auto;baseline-shift:baseline;text-anchor:start;white-space:normal;shape-padding:0;clip-rule:nonzero;display:inline;overflow:visible;visibility:visible;isolation:auto;mix-blend-mode:normal;color-interpolation:sRGB;color-interpolation-filters:linearRGB;solid-color:#000000;solid-opacity:1;vector-effect:none;fill:#616161;fill-opacity:1;fill-rule:nonzero;stroke:none;stroke-width:1.14289;stroke-linecap:square;stroke-linejoin:miter;stroke-miterlimit:4;stroke-dasharray:none;stroke-dashoffset:0;stroke-opacity:1;color-rendering:auto;image-rendering:auto;shape-rendering:auto;text-rendering:auto;enable-background:accumulate"
       inkscape:connector-curvature="0" />
  </g>
</svg>
