<?xml version="1.0" encoding="UTF-8" standalone="no"?>
<!-- Created with Inkscape (http://www.inkscape.org/) -->

<svg
   version="1.1"
   id="svg12115"
   width="34.713676"
   height="34.530499"
   xmlns:inkscape="http://www.inkscape.org/namespaces/inkscape"
   xmlns:sodipodi="http://sodipodi.sourceforge.net/DTD/sodipodi-0.dtd"
   xmlns="http://www.w3.org/2000/svg"
   xmlns:svg="http://www.w3.org/2000/svg">
  <defs
     id="defs12119" />
  <sodipodi:namedview
     id="namedview12117"
     pagecolor="#505050"
     bordercolor="#ffffff"
     borderopacity="1"
     inkscape:pageshadow="0"
     inkscape:pageopacity="0"
     inkscape:pagecheckerboard="1" />
  <inkscape:clipboard
     style="font-variation-settings:normal;opacity:1;vector-effect:none;fill:#fbbf24;fill-opacity:1;stroke-width:0.99999874;stroke-linecap:butt;stroke-linejoin:miter;stroke-miterlimit:4;stroke-dasharray:none;stroke-dashoffset:0;stroke-opacity:1;-inkscape-stroke:none;stop-color:#000000;stop-opacity:1"
     min="622.93285,1142.6033"
     max="657.64653,1177.1338"
     geom-min="622.93285,1142.6033"
     geom-max="657.64653,1177.1338" />
  <g
     id="g12121"
     transform="matrix(3.7795276,0,0,3.7795276,-622.93286,-1142.6033)">
    <path
       fill="#ffffff"
       d="m 172.16026,311.04999 c 0,-1.03143 -1.00436,-1.55634 -1.98252,-1.97792 -0.97495,-0.41974 -1.28632,-0.77335 -1.28632,-1.53108 0,-0.45418 0.29759,-0.30631 0.42801,-1.13936 0.055,-0.34535 0.31778,-0.005 0.36831,-0.79402 0,-0.31411 -0.14372,-0.39218 -0.14372,-0.39218 0,0 0.0731,-0.4652 0.10154,-0.82341 0.0293,-0.37518 -0.18278,-1.17563 -1.0567,-1.42132 -0.15239,-0.15655 -0.25579,-0.40505 0.21446,-0.65395 -1.02869,-0.0477 -1.26793,0.49045 -1.8158,0.88633 -0.46612,0.34717 -0.59196,0.89688 -0.56945,1.18941 0.0299,0.35819 0.10241,0.82339 0.10241,0.82339 0,0 -0.14424,0.0781 -0.14424,0.3922 0.0505,0.78895 0.31411,0.44867 0.36877,0.794 0.13035,0.83306 0.42847,0.68518 0.42847,1.13936 0,0.75775 -0.0974,1.01491 -1.07278,1.43465 -0.97863,0.42113 -1.2831,1.09619 -1.27805,2.0739 10e-4,0.29253 -0.005,0.39999 -0.005,0.39999 h 7.34775 c 0,0 -0.005,-0.10744 -0.005,-0.39999 z m 1.16598,-2.64703 c -0.52123,-0.20986 -0.73706,-0.46014 -0.73706,-0.94877 0,-0.29436 0.19195,-0.19839 0.27646,-0.73614 0.0354,-0.22227 0.20526,-0.003 0.23788,-0.51205 0,-0.20253 -0.0927,-0.25304 -0.0927,-0.25304 0,0 0.0474,-0.30126 0.0656,-0.53225 0.0229,-0.28795 -0.16715,-1.0319 -1.04155,-1.0319 -0.87392,0 -1.0645,0.74395 -1.042,1.0319 0.0193,0.23053 0.0661,0.53225 0.0661,0.53225 0,0 -0.0927,0.05 -0.0927,0.25304 0.0326,0.50837 0.20252,0.28978 0.23788,0.51205 0.0845,0.53822 0.27646,0.44223 0.27646,0.73614 0,0.48863 -0.20115,0.71732 -0.83075,0.98828 -0.0318,0.0139 -0.055,0.0312 -0.084,0.0469 0.75315,0.32699 1.94072,0.89138 2.22178,2.04223 h 1.21467 c 0,0 0,-0.87531 0,-1.06452 0,-0.45922 -0.12532,-0.84222 -0.676,-1.06404 z"
       id="path83035"
       style="display:inline;fill:#fbbf24;fill-opacity:1;stroke-width:0.264583" />
  </g>
</svg>
