<?xml version="1.0" encoding="UTF-8" standalone="no"?>
<!-- Created with Inkscape (http://www.inkscape.org/) -->

<svg
   version="1.1"
   id="svg15784"
   width="33.392883"
   height="38.744087"
   xmlns:inkscape="http://www.inkscape.org/namespaces/inkscape"
   xmlns:sodipodi="http://sodipodi.sourceforge.net/DTD/sodipodi-0.dtd"
   xmlns="http://www.w3.org/2000/svg"
   xmlns:svg="http://www.w3.org/2000/svg">
  <defs
     id="defs15788" />
  <sodipodi:namedview
     id="namedview15786"
     pagecolor="#505050"
     bordercolor="#ffffff"
     borderopacity="1"
     inkscape:pageshadow="0"
     inkscape:pageopacity="0"
     inkscape:pagecheckerboard="1" />
  <inkscape:clipboard
     style="font-variation-settings:normal;opacity:1;vector-effect:none;fill:#e8e8e8;fill-opacity:1;stroke:none;stroke-width:5.95940787;stroke-linecap:square;stroke-linejoin:miter;stroke-miterlimit:4;stroke-dasharray:none;stroke-dashoffset:0;stroke-opacity:1;-inkscape-stroke:none;stop-color:#000000;stop-opacity:1"
     min="526.73216,-1171.8641"
     max="560.12504,-1133.12"
     geom-min="526.73216,-1171.8641"
     geom-max="560.12504,-1133.12" />
  <g
     id="g15790"
     transform="matrix(3.7795276,0,0,3.7795276,-526.73216,1171.8641)">
    <path
       inkscape:connector-curvature="0"
       id="path2578"
       d="m 143.78245,-310.0557 c -1.473,0.85405 -2.9451,1.71032 -4.4179,2.56471 0,1.70723 0,3.41442 0,5.12165 1.4726,0.85497 2.9452,1.70979 4.4179,2.56468 1.4724,-0.85489 2.9448,-1.70979 4.4173,-2.56468 0,-1.70723 0,-3.41442 0,-5.12165 -1.4723,-0.85526 -2.9448,-1.70992 -4.4173,-2.56471 z m 0,1.82263 c 0.7952,0.46181 1.5905,0.92364 2.3858,1.38544 -0.9486,0.55086 -1.8972,1.10175 -2.8458,1.65262 0,1.10019 0,2.20038 0,3.30057 -0.7937,-0.46096 -1.5875,-0.92192 -2.3812,-1.38287 0,-0.92398 0,-1.84793 0,-2.77191 0.4458,0.25821 0.8916,0.51641 1.3374,0.77462 0.1536,-0.26543 0.3073,-0.53089 0.4609,-0.79632 -0.4475,-0.25908 -0.895,-0.51813 -1.3426,-0.77721 0.7952,-0.46165 1.5903,-0.92329 2.3855,-1.38494 z m 2.8406,2.18538 c 0,0.92364 0,1.84727 0,2.77091 -0.7934,0.46093 -1.5872,0.9212 -2.3807,1.38183 0,-0.92344 0,-1.84692 0,-2.77037 0.7935,-0.4608 1.5871,-0.92157 2.3807,-1.38237 z"
       style="color:#000000;font-style:normal;font-variant:normal;font-weight:normal;font-stretch:normal;font-size:medium;line-height:normal;font-family:sans-serif;font-variant-ligatures:normal;font-variant-position:normal;font-variant-caps:normal;font-variant-numeric:normal;font-variant-alternates:normal;font-feature-settings:normal;text-indent:0;text-align:start;text-decoration:none;text-decoration-line:none;text-decoration-style:solid;text-decoration-color:#000000;letter-spacing:normal;word-spacing:normal;text-transform:none;writing-mode:lr-tb;direction:ltr;text-orientation:mixed;dominant-baseline:auto;baseline-shift:baseline;text-anchor:start;white-space:normal;shape-padding:0;clip-rule:nonzero;display:inline;overflow:visible;visibility:visible;isolation:auto;mix-blend-mode:normal;color-interpolation:sRGB;color-interpolation-filters:linearRGB;solid-color:#000000;solid-opacity:1;vector-effect:none;fill:#e8e8e8;fill-opacity:1;fill-rule:nonzero;stroke:none;stroke-width:1.57676;stroke-linecap:square;stroke-linejoin:miter;stroke-miterlimit:4;stroke-dasharray:none;stroke-dashoffset:0;stroke-opacity:1;color-rendering:auto;image-rendering:auto;shape-rendering:auto;text-rendering:auto;enable-background:accumulate" />
  </g>
</svg>
