<?xml version="1.0" encoding="UTF-8" standalone="no"?>
<!-- Created with Inkscape (http://www.inkscape.org/) -->

<svg
   version="1.1"
   id="svg24129"
   width="151.2289"
   height="28.648081"
   xmlns:inkscape="http://www.inkscape.org/namespaces/inkscape"
   xmlns:sodipodi="http://sodipodi.sourceforge.net/DTD/sodipodi-0.dtd"
   xmlns="http://www.w3.org/2000/svg"
   xmlns:svg="http://www.w3.org/2000/svg">
  <defs
     id="defs24133" />
  <sodipodi:namedview
     id="namedview24131"
     pagecolor="#505050"
     bordercolor="#ffffff"
     borderopacity="1"
     inkscape:pageshadow="0"
     inkscape:pageopacity="0"
     inkscape:pagecheckerboard="1" />
  <inkscape:clipboard
     style="font-variation-settings:normal;opacity:1;vector-effect:none;fill:#ffffff;fill-opacity:1;stroke-width:1.00000117;stroke-linecap:butt;stroke-linejoin:miter;stroke-miterlimit:4;stroke-dasharray:none;stroke-dashoffset:0;stroke-opacity:1;-inkscape-stroke:none;stop-color:#000000;stop-opacity:1"
     min="880.677,5094.3931"
     max="1031.9059,5123.0412"
     geom-min="880.677,5094.3931"
     geom-max="1031.9059,5123.0412" />
  <g
     id="g24135"
     transform="matrix(3.7795276,0,0,3.7795276,-880.67701,-5094.3931)">
    <g
       id="Discord_Logo_-_Large_-_White"
       data-name="Discord Logo - Large - White"
       transform="matrix(0.07866132,0,0,0.07866132,233.01245,1347.8915)"
       style="display:inline;stroke-width:3.36358">
      <path
         class="cls-1"
         d="m 170.85,20.2 h 27.3 q 9.87,0 16.7,3.08 a 22.5,22.5 0 0 1 10.21,8.58 23.34,23.34 0 0 1 3.4,12.56 23.24,23.24 0 0 1 -3.53,12.58 23.94,23.94 0 0 1 -10.79,8.92 q -7.24,3.3 -17.95,3.29 h -25.34 z m 25.06,36.54 q 6.65,0 10.22,-3.32 a 11.8,11.8 0 0 0 3.57,-9.07 11.5,11.5 0 0 0 -3.18,-8.5 q -3.2,-3.18 -9.63,-3.19 h -8.54 v 24.08 z"
         id="path63350"
         style="stroke-width:3.36358" />
      <path
         class="cls-1"
         d="M 269.34,69.13 A 37,37 0 0 1 259.12,64.86 V 53.24 a 27.77,27.77 0 0 0 9.2,4.38 39.31,39.31 0 0 0 11.17,1.71 8.71,8.71 0 0 0 3.82,-0.66 c 0.86,-0.44 1.29,-1 1.29,-1.58 a 2.37,2.37 0 0 0 -0.7,-1.75 6.15,6.15 0 0 0 -2.73,-1.19 l -8.4,-1.89 q -7.22,-1.68 -10.25,-4.65 a 10.39,10.39 0 0 1 -3,-7.81 10.37,10.37 0 0 1 2.66,-7.07 17.13,17.13 0 0 1 7.56,-4.65 36,36 0 0 1 11.48,-1.65 43.27,43.27 0 0 1 10.78,1.26 30.25,30.25 0 0 1 8.12,3.22 v 11 a 30,30 0 0 0 -7.6,-3.11 34,34 0 0 0 -8.85,-1.16 q -6.58,0 -6.58,2.24 a 1.69,1.69 0 0 0 1,1.58 16.14,16.14 0 0 0 3.74,1.08 l 7,1.26 q 6.82,1.2 10.17,4.2 3.35,3 3.36,8.78 a 11.61,11.61 0 0 1 -5.57,10.12 q -5.53,3.71 -15.79,3.7 a 46.41,46.41 0 0 1 -11.66,-1.47 z"
         id="path63352"
         style="stroke-width:3.36358" />
      <path
         class="cls-1"
         d="m 318.9,67.66 a 21,21 0 0 1 -9.07,-8 21.59,21.59 0 0 1 -3,-11.34 20.62,20.62 0 0 1 3.15,-11.27 21.16,21.16 0 0 1 9.24,-7.8 34.25,34.25 0 0 1 14.56,-2.84 q 10.5,0 17.43,4.41 v 12.83 a 21.84,21.84 0 0 0 -5.7,-2.73 22.65,22.65 0 0 0 -7,-1.05 q -6.51,0 -10.19,2.38 a 7.15,7.15 0 0 0 -0.1,12.43 q 3.57,2.41 10.36,2.41 a 23.91,23.91 0 0 0 6.9,-1 25.71,25.71 0 0 0 5.84,-2.49 V 66 a 34,34 0 0 1 -17.85,4.62 32.93,32.93 0 0 1 -14.57,-2.96 z"
         id="path63354"
         style="stroke-width:3.36358" />
      <path
         class="cls-1"
         d="m 368.64,67.66 a 21.77,21.77 0 0 1 -9.25,-8 21.14,21.14 0 0 1 -3.18,-11.41 20.27,20.27 0 0 1 3.18,-11.25 21.42,21.42 0 0 1 9.21,-7.74 38.17,38.17 0 0 1 28.7,0 21.25,21.25 0 0 1 9.17,7.7 20.41,20.41 0 0 1 3.15,11.27 21.29,21.29 0 0 1 -3.15,11.41 21.51,21.51 0 0 1 -9.2,8 36.32,36.32 0 0 1 -28.63,0 z m 21.27,-12.42 a 9.12,9.12 0 0 0 2.56,-6.76 8.87,8.87 0 0 0 -2.56,-6.68 9.53,9.53 0 0 0 -7,-2.49 9.67,9.67 0 0 0 -7,2.49 8.9,8.9 0 0 0 -2.55,6.68 9.15,9.15 0 0 0 2.55,6.76 9.53,9.53 0 0 0 7,2.55 9.4,9.4 0 0 0 7,-2.55 z"
         id="path63356"
         style="stroke-width:3.36358" />
      <path
         class="cls-1"
         d="m 451.69,29 v 15.14 a 12.47,12.47 0 0 0 -6.93,-1.75 c -3.73,0 -6.61,1.14 -8.61,3.4 -2,2.26 -3,5.77 -3,10.53 V 69.2 H 416 V 28.25 h 16.8 v 13 q 1.4,-7.14 4.52,-10.53 a 10.38,10.38 0 0 1 8,-3.4 11.71,11.71 0 0 1 6.37,1.68 z"
         id="path63358"
         style="stroke-width:3.36358" />
      <path
         class="cls-1"
         d="M 508.67,18.8 V 69.2 H 491.52 V 60 A 16.23,16.23 0 0 1 484.9,67.88 20.81,20.81 0 0 1 474,70.6 18.11,18.11 0 0 1 463.85,67.77 18.6,18.6 0 0 1 457.11,60 a 25.75,25.75 0 0 1 -2.34,-11.17 24.87,24.87 0 0 1 2.48,-11.55 19.43,19.43 0 0 1 7.21,-8 19.85,19.85 0 0 1 10.61,-2.87 q 12.24,0 16.45,10.64 V 18.8 Z M 489,55 A 8.83,8.83 0 0 0 491.63,48.38 8.42,8.42 0 0 0 489,42 a 11,11 0 0 0 -13.89,0 8.55,8.55 0 0 0 -2.59,6.47 8.67,8.67 0 0 0 2.62,6.53 9.42,9.42 0 0 0 6.86,2.51 9.56,9.56 0 0 0 7,-2.51 z"
         id="path63360"
         style="stroke-width:3.36358" />
      <path
         class="cls-1"
         d="M 107.7,8.07 A 105.15,105.15 0 0 0 81.47,0 72.06,72.06 0 0 0 78.11,6.83 97.68,97.68 0 0 0 49,6.83 72.37,72.37 0 0 0 45.64,0 105.89,105.89 0 0 0 19.39,8.09 C 2.79,32.65 -1.71,56.6 0.54,80.21 v 0 A 105.73,105.73 0 0 0 32.71,96.36 77.7,77.7 0 0 0 39.6,85.25 68.42,68.42 0 0 1 28.75,80.07 c 0.91,-0.66 1.8,-1.34 2.66,-2 a 75.57,75.57 0 0 0 64.32,0 c 0.87,0.71 1.76,1.39 2.66,2 a 68.68,68.68 0 0 1 -10.87,5.19 77,77 0 0 0 6.89,11.1 105.25,105.25 0 0 0 32.19,-16.14 v 0 C 129.24,52.84 122.09,29.11 107.7,8.07 Z M 42.45,65.69 C 36.18,65.69 31,60 31,53 31,46 36,40.26 42.43,40.26 48.86,40.26 54,46 53.89,53 53.78,60 48.84,65.69 42.45,65.69 Z m 42.24,0 C 78.41,65.69 73.25,60 73.25,53 c 0,-7 5,-12.74 11.44,-12.74 6.44,0 11.54,5.74 11.43,12.74 -0.11,7 -5.04,12.69 -11.43,12.69 z"
         id="path63362"
         style="stroke-width:3.36358" />
      <ellipse
         class="cls-1"
         cx="242.92"
         cy="24.93"
         rx="8.5500002"
         ry="7.6799998"
         id="ellipse63364"
         style="stroke-width:3.36358" />
      <path
         class="cls-1"
         d="m 234.36,37.9 a 22.08,22.08 0 0 0 17.11,0 v 31.52 h -17.11 z"
         id="path63366"
         style="stroke-width:3.36358" />
    </g>
  </g>
</svg>
