<?xml version="1.0" encoding="UTF-8" standalone="no"?>
<!-- Created with Inkscape (http://www.inkscape.org/) -->

<svg
   version="1.1"
   id="svg2726"
   width="19.834017"
   height="19.834017"
   xmlns:inkscape="http://www.inkscape.org/namespaces/inkscape"
   xmlns:sodipodi="http://sodipodi.sourceforge.net/DTD/sodipodi-0.dtd"
   xmlns="http://www.w3.org/2000/svg"
   xmlns:svg="http://www.w3.org/2000/svg">
  <defs
     id="defs2730" />
  <sodipodi:namedview
     id="namedview2728"
     pagecolor="#505050"
     bordercolor="#ffffff"
     borderopacity="1"
     inkscape:pageshadow="0"
     inkscape:pageopacity="0"
     inkscape:pagecheckerboard="1" />
  <inkscape:clipboard
     style="font-variation-settings:normal;opacity:1;vector-effect:none;fill:#483400;fill-opacity:1;stroke-width:0.99999874;stroke-linecap:butt;stroke-linejoin:miter;stroke-miterlimit:4;stroke-dasharray:none;stroke-dashoffset:0;stroke-opacity:1;-inkscape-stroke:none;stop-color:#000000;stop-opacity:1"
     min="1084.5938,1842.2023"
     max="1104.4278,1862.0363"
     geom-min="1084.5938,1842.2023"
     geom-max="1104.4278,1862.0363" />
  <g
     id="g2732"
     transform="matrix(3.7795276,0,0,3.7795276,-1084.5938,-1842.2023)">
    <path
       d="m 289.58932,487.41603 c -1.44677,0 -2.62388,1.17711 -2.62388,2.62387 0,1.44677 1.17711,2.62388 2.62388,2.62388 1.44676,0 2.62387,-1.17711 2.62387,-2.62388 0,-1.44676 -1.17711,-2.62387 -2.62387,-2.62387 z m 0,0.40368 c 1.22414,0 2.22019,0.99606 2.22019,2.22019 0,1.22414 -0.99605,2.2202 -2.22019,2.2202 -1.03109,0 -1.89756,-0.70759 -2.1461,-1.66199 l 0.73994,0.31694 c 0.034,0.30214 0.28756,0.53771 0.59881,0.53771 0.33444,0 0.6055,-0.27107 0.6055,-0.60551 0,-0.007 -0.002,-0.0127 -0.002,-0.0189 l 0.84322,-0.58974 c 0.42991,-0.0182 0.77344,-0.36984 0.77344,-0.80419 0,-0.44586 -0.36149,-0.80734 -0.80735,-0.80734 -0.43435,0 -0.78583,0.34352 -0.8038,0.77344 l -0.59013,0.84322 c -0.006,-2.1e-4 -0.0124,-0.002 -0.0189,-0.002 -0.13388,0 -0.25651,0.0447 -0.35676,0.11826 l -1.04938,-0.4498 c 0.0677,-1.16368 1.03313,-2.0905 2.21349,-2.0905 z m 0.60551,1.00917 c 0.33443,0 0.6055,0.27107 0.6055,0.60551 0,0.33445 -0.27107,0.60551 -0.6055,0.60551 -0.33445,0 -0.60551,-0.27106 -0.60551,-0.60551 0,-0.33444 0.27106,-0.60551 0.60551,-0.60551 z m 0,0.20184 a 0.403675,0.403675 0 0 0 0,0.80735 0.403675,0.403675 0 0 0 0,-0.80735 z m -1.41286,1.41286 c 0.22303,0 0.40367,0.18064 0.40367,0.40367 0,0.22303 -0.18064,0.40367 -0.40367,0.40367 -0.16325,0 -0.30301,-0.0972 -0.36662,-0.23653 l 0.15808,0.0678 c 0.0388,0.0168 0.0793,0.0248 0.11905,0.0248 0.11747,0 0.22946,-0.0688 0.27871,-0.1837 0.0658,-0.15359 -0.005,-0.33156 -0.15926,-0.39736 l -0.14704,-0.0631 c 0.0373,-0.0114 0.0761,-0.0193 0.11708,-0.0193 z"
       id="path428496"
       style="display:inline;fill:#483400;fill-opacity:1;stroke-width:0.264583" />
  </g>
</svg>
