<?xml version="1.0" encoding="UTF-8" standalone="no"?>
<!-- Created with Inkscape (http://www.inkscape.org/) -->

<svg
   version="1.1"
   id="svg7522"
   width="18.402037"
   height="18.400139"
   xmlns:inkscape="http://www.inkscape.org/namespaces/inkscape"
   xmlns:sodipodi="http://sodipodi.sourceforge.net/DTD/sodipodi-0.dtd"
   xmlns="http://www.w3.org/2000/svg"
   xmlns:svg="http://www.w3.org/2000/svg">
  <defs
     id="defs7526" />
  <sodipodi:namedview
     id="namedview7524"
     pagecolor="#505050"
     bordercolor="#ffffff"
     borderopacity="1"
     inkscape:pageshadow="0"
     inkscape:pageopacity="0"
     inkscape:pagecheckerboard="1" />
  <inkscape:clipboard
     style="font-variation-settings:normal;opacity:1;vector-effect:none;fill:#483400;fill-opacity:1;stroke-width:0.99999874;stroke-linecap:butt;stroke-linejoin:miter;stroke-miterlimit:4;stroke-dasharray:none;stroke-dashoffset:0;stroke-opacity:1;-inkscape-stroke:none;stop-color:#000000;stop-opacity:1"
     min="252.0702,1842.9193"
     max="270.47223,1861.3194"
     geom-min="252.0702,1842.9193"
     geom-max="270.47223,1861.3194" />
  <g
     id="g7528"
     transform="matrix(3.7795276,0,0,3.7795276,-252.0702,-1842.9193)">
    <path
       fill="#ffffff"
       d="m 67.877293,489.22366 c 0.0529,0 0.10424,0.008 0.1524,0.0228 0.18256,-0.20452 0.38496,-0.39079 0.60404,-0.55562 -0.009,-0.0386 -0.0143,-0.0791 -0.0143,-0.12039 0,-0.0574 0.01,-0.11271 0.027,-0.1643 -0.2458,-0.17569 -0.5125,-0.32359 -0.79666,-0.43763 -0.26591,0.16431 -0.49795,0.37862 -0.68316,0.62998 0.13732,0.24341 0.30057,0.47016 0.48631,0.67654 0.0677,-0.0328 0.14367,-0.0513 0.22437,-0.0513 z m -0.51806,0.51779 c 0,-0.0728 0.0154,-0.14208 0.0421,-0.20453 -0.16616,-0.18309 -0.31671,-0.37994 -0.44847,-0.58975 -0.16536,0.32861 -0.25929,0.69982 -0.25929,1.09299 0,0.45482 0.12541,0.88054 0.34264,1.24487 0.0778,-0.43762 0.225161,-0.8517 0.428621,-1.23085 -0.0661,-0.0868 -0.10557,-0.19552 -0.10557,-0.31273 z m 1.778,-1.68884 c 0.136791,0 0.26062,0.0532 0.353481,0.13997 0.270139,-0.11616 0.554569,-0.20558 0.850639,-0.26247 -0.35745,-0.20611 -0.77179,-0.32438 -1.21364,-0.32438 -0.30136,0 -0.58976,0.0553 -0.8562,0.15558 0.21141,0.10451 0.41302,0.22621 0.60246,0.3638 0.0773,-0.046 0.16695,-0.0725 0.26326,-0.0725 z m 0.77417,2.4392 c 0.0323,-0.0672 0.078,-0.12674 0.13468,-0.17357 -0.15293,-0.47017 -0.395029,-0.90064 -0.70697,-1.27079 -0.0619,0.0265 -0.13018,0.0407 -0.20214,0.0407 -0.11245,0 -0.215899,-0.0362 -0.300829,-0.0966 -0.18786,0.14261 -0.361691,0.30242 -0.51965,0.47704 0.0498,0.0791 0.0786,0.17251 0.0786,0.27279 0,0.0537 -0.008,0.10583 -0.0238,0.15504 0.45429,0.30322 0.97737,0.51171 1.54014,0.59532 z m 0.67178,0.69929 c 0.007,0.0982 0.0109,0.19685 0.0109,0.2966 0,0.17568 -0.0111,0.34872 -0.0323,0.51885 0.41275,-0.30137 0.72707,-0.72973 0.88556,-1.22741 -0.18786,0.0455 -0.38047,0.0781 -0.57706,0.0966 -0.0458,0.14208 -0.15134,0.25638 -0.28707,0.31538 z m -0.79296,-0.3511 c -0.60113,-0.0998 -1.15808,-0.32914 -1.64306,-0.65723 -0.0788,0.0482 -0.17118,0.0765 -0.27014,0.0765 -0.0368,0 -0.072,-0.004 -0.10636,-0.0109 -0.23204,0.43974 -0.38047,0.93054 -0.42307,1.45097 0.23177,0.24871 0.51435,0.449 0.83211,0.58341 0.39476,-0.60669 0.94615,-1.10834 1.61052,-1.44277 z m 0.97155,-2.6043 c -0.39026,0.0378 -0.76279,0.136 -1.109389,0.28258 0.002,0.0175 0.003,0.0347 0.003,0.0521 0,0.0818 -0.0196,0.15875 -0.0532,0.22728 0.346871,0.40719 0.61569,0.88106 0.78555,1.39991 0.21087,0.004 0.390791,0.13282 0.468311,0.31618 0.23443,-0.0238 0.4625,-0.0688 0.6821,-0.13335 0.0159,-0.11113 0.0243,-0.2249 0.0243,-0.34052 -2.7e-4,-0.71544 -0.308771,-1.3589 -0.80037,-1.8042 z m -0.710929,2.88079 c -0.620191,0.29051 -1.138771,0.73792 -1.514211,1.28481 0.18917,0.0474 0.38708,0.0728 0.59108,0.0728 0.36697,0 0.714901,-0.0817 1.02711,-0.22727 0.0503,-0.24554 0.0767,-0.49927 0.0767,-0.75909 0,-0.0939 -0.004,-0.18706 -0.0114,-0.27914 -0.0624,-0.0201 -0.11986,-0.0511 -0.16933,-0.0921 z"
       id="path428488"
       style="display:inline;fill:#483400;fill-opacity:1;stroke-width:0.264583" />
  </g>
</svg>
