<?xml version="1.0" encoding="UTF-8" standalone="no"?>
<!-- Created with Inkscape (http://www.inkscape.org/) -->

<svg
   version="1.1"
   id="svg17711"
   width="25.969248"
   height="20.887865"
   xmlns:inkscape="http://www.inkscape.org/namespaces/inkscape"
   xmlns:sodipodi="http://sodipodi.sourceforge.net/DTD/sodipodi-0.dtd"
   xmlns="http://www.w3.org/2000/svg"
   xmlns:svg="http://www.w3.org/2000/svg">
  <defs
     id="defs17715" />
  <sodipodi:namedview
     id="namedview17713"
     pagecolor="#505050"
     bordercolor="#ffffff"
     borderopacity="1"
     inkscape:pageshadow="0"
     inkscape:pageopacity="0"
     inkscape:pagecheckerboard="1" />
  <inkscape:clipboard
     style="font-variation-settings:normal;opacity:1;vector-effect:none;fill:#fbbf24;fill-opacity:1;stroke-width:0.99999874;stroke-linecap:butt;stroke-linejoin:miter;stroke-miterlimit:4;stroke-dasharray:none;stroke-dashoffset:0;stroke-opacity:1;-inkscape-stroke:none;stop-color:#000000;stop-opacity:1"
     min="1258.4123,2405.0851"
     max="1284.3816,2425.973"
     geom-min="1258.4123,2405.0851"
     geom-max="1284.3816,2425.973" />
  <g
     id="g17717"
     transform="matrix(3.7795276,0,0,3.7795276,-1258.4124,-2405.0852)">
    <path
       fill="#ffffff"
       d="m 339.63701,636.35839 c -0.12843,0.0452 -6.46785,2.27929 -6.59294,2.32335 -0.10599,0.0374 -0.12956,0.12886 -0.004,0.17887 0.14974,0.0601 1.41747,0.56796 1.41747,0.56796 v 0 l 0.84017,0.33644 c 0,0 4.04702,-2.97159 4.10154,-3.01193 0.0553,-0.0404 0.11869,0.0354 0.0788,0.0788 -0.0399,0.0437 -2.93912,3.17885 -2.93912,3.17885 v 7.3e-4 l -0.16878,0.18784 0.22368,0.12024 v 0 c 0,0 1.73635,0.93501 1.86032,1.00148 0.10867,0.0583 0.24944,0.01 0.28081,-0.12476 0.037,-0.15908 1.06235,-4.57839 1.08513,-4.67697 0.0295,-0.128 -0.0553,-0.20612 -0.18334,-0.16093 z m -4.3465,5.4249 c 0,0.0919 0.0519,0.11756 0.12363,0.0526 0.0937,-0.0855 1.06423,-0.9563 1.06423,-0.9563 l -1.18782,-0.61388 z"
       id="path79051"
       style="display:inline;fill:#fbbf24;fill-opacity:1;stroke-width:0.264583" />
  </g>
</svg>
