<?xml version="1.0" encoding="UTF-8" standalone="no"?>
<!-- Created with Inkscape (http://www.inkscape.org/) -->

<svg
   version="1.1"
   id="svg2726"
   width="19.834017"
   height="19.834017"
   sodipodi:docname="icon-rocket.svg"
   xml:space="preserve"
   inkscape:version="1.4.2 (1:1.4.2+202505120738+ebf0e940d0)"
   xmlns:inkscape="http://www.inkscape.org/namespaces/inkscape"
   xmlns:sodipodi="http://sodipodi.sourceforge.net/DTD/sodipodi-0.dtd"
   xmlns="http://www.w3.org/2000/svg"
   xmlns:svg="http://www.w3.org/2000/svg"><defs
     id="defs2730" /><sodipodi:namedview
     id="namedview2728"
     pagecolor="#ffffff"
     bordercolor="#ffffff"
     borderopacity="1"
     inkscape:pageshadow="0"
     inkscape:pageopacity="0"
     inkscape:pagecheckerboard="true"
     inkscape:showpageshadow="false"
     inkscape:deskcolor="#d1d1d1"
     showborder="true"
     inkscape:antialias-rendering="true"
     inkscape:clip-to-page="false"
     inkscape:zoom="11.953391"
     inkscape:cx="9.035093"
     inkscape:cy="8.3239977"
     inkscape:window-width="1440"
     inkscape:window-height="875"
     inkscape:window-x="0"
     inkscape:window-y="0"
     inkscape:window-maximized="1"
     inkscape:current-layer="svg2726" /><inkscape:clipboard
     style="font-variation-settings:normal;opacity:1;vector-effect:none;fill:#483400;fill-opacity:1;stroke-width:0.99999874;stroke-linecap:butt;stroke-linejoin:miter;stroke-miterlimit:4;stroke-dasharray:none;stroke-dashoffset:0;stroke-opacity:1;-inkscape-stroke:none;stop-color:#000000;stop-opacity:1"
     min="1084.5938,1842.2023"
     max="1104.4278,1862.0363"
     geom-min="1084.5938,1842.2023"
     geom-max="1104.4278,1862.0363" /><path
     d="m 12.179895,12.486655 c 0,0 7.059,-5.0940004 6.276,-10.9240004 -0.017,-0.127 -0.059,-0.213 -0.112,-0.268 -0.054,-0.055 -0.137,-0.098 -0.263,-0.115 -5.697,-0.80100002 -10.6739987,6.422 -10.6739987,6.422 -4.318,-0.517 -4.004,0.344 -5.974,5.0760004 -0.377,0.902 0.234,1.213 0.904,0.959 0.67,-0.252 2.148,-0.811 2.148,-0.811 l 2.59,2.648 c 0,0 -0.546,1.514 -0.793,2.199 -0.248,0.686 0.055,1.311 0.938,0.926 4.6239987,-2.016 5.4659987,-1.694 4.9599987,-6.112 z m 1.009,-5.9160004 c -0.598,-0.613 -0.598,-1.604 0,-2.217 0.598,-0.611 1.567,-0.611 2.166,0 0.598,0.611 0.598,1.603 0,2.217 -0.599,0.611 -1.569,0.611 -2.166,0 z"
     id="path1"
     style="fill:#483400;fill-opacity:1" /></svg>
