<?xml version="1.0" encoding="UTF-8" standalone="no"?>
<!-- Created with Inkscape (http://www.inkscape.org/) -->

<svg
   width="1200"
   height="600"
   viewBox="0 0 1200 600.00003"
   version="1.1"
   id="svg16154"
   inkscape:version="1.1 (1:1.1+202106031931+af4d65493e)"
   sodipodi:docname="media-image.svg"
   inkscape:export-filename="/home/jirka/unisave/website/src/assets/index/media-image.png"
   inkscape:export-xdpi="96"
   inkscape:export-ydpi="96"
   xmlns:inkscape="http://www.inkscape.org/namespaces/inkscape"
   xmlns:sodipodi="http://sodipodi.sourceforge.net/DTD/sodipodi-0.dtd"
   xmlns="http://www.w3.org/2000/svg"
   xmlns:svg="http://www.w3.org/2000/svg">
  <sodipodi:namedview
     id="namedview16156"
     pagecolor="#505050"
     bordercolor="#ffffff"
     borderopacity="1"
     inkscape:pageshadow="0"
     inkscape:pageopacity="0"
     inkscape:pagecheckerboard="1"
     inkscape:document-units="px"
     showgrid="false"
     units="px"
     inkscape:zoom="0.89427277"
     inkscape:cx="556.31796"
     inkscape:cy="294.65283"
     inkscape:window-width="1920"
     inkscape:window-height="1030"
     inkscape:window-x="0"
     inkscape:window-y="24"
     inkscape:window-maximized="1"
     inkscape:current-layer="layer2"
     inkscape:snap-page="true"
     height="600px" />
  <defs
     id="defs16151" />
  <g
     inkscape:groupmode="layer"
     id="layer3"
     inkscape:label="Background"
     style="display:inline"
     sodipodi:insensitive="true">
    <rect
       style="fill:#ffffff;fill-opacity:1;stroke:#e8e8e8;stroke-width:0.755906;stroke-linecap:round;stop-color:#000000"
       id="rect37474"
       width="1200"
       height="600"
       x="0"
       y="0" />
  </g>
  <g
     inkscape:groupmode="layer"
     id="layer2"
     inkscape:label="Foreground"
     style="display:inline">
    <rect
       style="fill:#fbbf24;fill-opacity:1;stroke:none;stroke-width:5;stroke-linecap:round;stroke-miterlimit:4;stroke-dasharray:none;stroke-opacity:1;stop-color:#000000"
       id="rect38041"
       width="725"
       height="87.726067"
       x="236.57561"
       y="-134.38423" />
    <text
       xml:space="preserve"
       style="font-style:normal;font-weight:normal;font-size:64px;line-height:1.25;font-family:sans-serif;letter-spacing:0px;word-spacing:0px;fill:#353535;fill-opacity:1;stroke:none;stroke-width:0.999999"
       x="234.68228"
       y="321.57697"
       id="text318479"><tspan
         sodipodi:role="line"
         x="234.68228"
         y="321.57697"
         style="font-style:normal;font-variant:normal;font-weight:bold;font-stretch:normal;font-size:64px;font-family:'Fira Sans';-inkscape-font-specification:'Fira Sans Bold';fill:#353535;fill-opacity:1;stroke-width:0.999999"
         id="tspan18249">Bringing cloud</tspan><tspan
         sodipodi:role="line"
         x="234.68228"
         y="402.81863"
         style="font-style:normal;font-variant:normal;font-weight:bold;font-stretch:normal;font-size:64px;font-family:'Fira Sans';-inkscape-font-specification:'Fira Sans Bold';fill:#fbbf24;fill-opacity:1;stroke-width:0.999999"
         id="tspan2379">to your Unity project</tspan></text>
    <g
       id="g16929"
       transform="matrix(1.1476408,0,0,1.1476408,-514.24631,23.553976)"
       style="stroke-width:0.871353">
      <path
         id="path2267"
         d="m 680.32368,75.693937 -1.28405,0.744805 -13.04022,7.571976 v 13.665173 l -11.76865,6.833009 v 16.60858 l 14.3251,8.31679 11.76782,-6.83218 11.76782,6.83218 11.76779,-6.83218 11.76865,6.83218 14.32426,-8.31679 V 104.5089 L 718.18438,97.675891 V 84.010718 l -14.32509,-8.316781 -11.76779,6.832175 z m 23.53561,5.911792 7.7376,4.492086 -9.22885,5.358383 v 11.934252 l -8.78529,-5.101244 V 88.069239 l 5.40083,3.128991 1.49541,-2.580578 -4.35311,-2.5215 z m -23.53561,8.5e-4 7.73673,4.492094 -9.228,5.357552 v 11.934225 l -7.7201,-4.482104 V 88.686715 l 4.33564,2.511515 1.49459,-2.580578 -4.35229,-2.5215 z m 10.27657,6.466016 v 10.216638 l -8.78532,5.101237 V 93.173816 Z m 22.47126,0.618308 v 10.216626 l -7.72093,4.482941 V 93.173816 Z m -20.98001,12.181407 8.79859,5.10789 -10.28984,5.97421 v 10.70179 l -8.78532,-5.10043 v -8.98834 l 5.40082,3.12898 1.49459,-2.58141 -5.41414,-3.13564 z m -22.47462,0.61581 7.73675,4.49208 -10.28903,5.97421 v 10.70262 l -7.72094,-4.48293 v -8.98918 l 4.33564,2.51151 1.49542,-2.58141 -4.35312,-2.52067 z m 44.95004,0 8.79862,5.10789 -9.22885,5.3584 v 10.70262 l -8.78611,-5.10209 v -8.98751 l 5.40166,3.12898 1.49458,-2.58141 -5.41497,-3.13648 z m -35.73451,7.08265 v 8.98501 l -8.78529,5.10042 v -8.98418 z m 23.53563,0 v 8.98501 l -8.78529,5.10042 v -8.98418 z m 22.47125,0.61831 v 8.98502 l -7.7201,4.48293 v -8.98501 z"
         style="color:#000000;font-style:normal;font-variant:normal;font-weight:normal;font-stretch:normal;font-size:medium;line-height:normal;font-family:sans-serif;font-variant-ligatures:normal;font-variant-position:normal;font-variant-caps:normal;font-variant-numeric:normal;font-variant-alternates:normal;font-feature-settings:normal;text-indent:0;text-align:start;text-decoration:none;text-decoration-line:none;text-decoration-style:solid;text-decoration-color:#000000;letter-spacing:normal;word-spacing:normal;text-transform:none;writing-mode:lr-tb;direction:ltr;text-orientation:mixed;dominant-baseline:auto;baseline-shift:baseline;text-anchor:start;white-space:normal;shape-padding:0;clip-rule:nonzero;display:inline;overflow:visible;visibility:visible;isolation:auto;mix-blend-mode:normal;color-interpolation:sRGB;color-interpolation-filters:linearRGB;solid-color:#000000;solid-opacity:1;vector-effect:none;fill:#353535;fill-opacity:1;fill-rule:nonzero;stroke:none;stroke-width:5.19275;stroke-linecap:square;stroke-linejoin:miter;stroke-miterlimit:4;stroke-dasharray:none;stroke-dashoffset:0;stroke-opacity:1;color-rendering:auto;image-rendering:auto;shape-rendering:auto;text-rendering:auto;enable-background:accumulate"
         inkscape:connector-curvature="0" />
      <g
         transform="matrix(0.42607461,0,0,0.42607461,535.80283,488.85682)"
         id="g2285"
         style="fill:#353535;fill-opacity:1;stroke-width:1.01562">
        <g
           aria-label="Unisave"
           style="font-style:normal;font-weight:normal;font-size:92.5321px;line-height:1.25;font-family:sans-serif;letter-spacing:0px;word-spacing:0px;fill:#353535;fill-opacity:1;stroke:none;stroke-width:2.34944"
           id="g2283">
          <path
             d="m 545.74879,-895.45424 q 0,6.47724 -2.77596,11.56651 -2.68343,4.99673 -8.14282,7.86522 -5.36687,2.8685 -12.9545,2.8685 -11.47397,0 -17.58109,-6.01459 -6.10712,-6.10711 -6.10712,-16.28564 v -43.02742 h 12.21424 v 42.37969 q 0,6.75484 2.77596,10.086 2.86849,3.33115 8.69801,3.33115 5.92206,0 8.69802,-3.33115 2.86849,-3.33116 2.86849,-10.086 v -42.37969 h 12.30677 z"
             style="font-style:normal;font-variant:normal;font-weight:500;font-stretch:normal;font-family:'Fira Sans';-inkscape-font-specification:'Fira Sans Medium';fill:#353535;fill-opacity:1;stroke-width:2.34944"
             id="path2269"
             inkscape:connector-curvature="0" />
          <path
             d="m 585.56072,-924.87944 q 6.56978,0 10.17853,3.97887 3.70128,3.88635 3.70128,10.91879 v 35.43979 h -11.84411 v -33.58915 q 0,-4.34901 -1.57304,-6.10712 -1.48051,-1.7581 -4.44154,-1.7581 -3.05356,0 -5.55193,1.94317 -2.40583,1.85064 -4.71913,5.45939 v 34.05181 h -11.84411 v -48.94947 h 10.27106 l 0.92532,6.38471 q 6.01459,-7.77269 14.89767,-7.77269 z"
             style="font-style:normal;font-variant:normal;font-weight:500;font-stretch:normal;font-family:'Fira Sans';-inkscape-font-specification:'Fira Sans Medium';fill:#353535;fill-opacity:1;stroke-width:2.34944"
             id="path2271"
             inkscape:connector-curvature="0" />
          <path
             d="m 624.98661,-923.49146 v 48.94947 H 613.1425 v -48.94947 z m -6.01459,-24.7986 q 3.33116,0 5.36686,2.12824 2.12824,2.0357 2.12824,5.08926 0,3.05356 -2.12824,5.08927 -2.0357,2.0357 -5.36686,2.0357 -3.23862,0 -5.36686,-2.0357 -2.0357,-2.03571 -2.0357,-5.08927 0,-3.05356 2.0357,-5.08926 2.12824,-2.12824 5.36686,-2.12824 z"
             style="font-style:normal;font-variant:normal;font-weight:500;font-stretch:normal;font-family:'Fira Sans';-inkscape-font-specification:'Fira Sans Medium';fill:#353535;fill-opacity:1;stroke-width:2.34944"
             id="path2273"
             inkscape:connector-curvature="0" />
          <path
             d="m 654.62002,-924.87944 q 9.90093,0 17.39603,5.82952 l -4.6266,6.9399 q -6.29219,-3.97888 -12.30677,-3.97888 -3.51622,0 -5.45939,1.38798 -1.94318,1.29545 -1.94318,3.51622 0,1.66558 0.83279,2.77597 0.83279,1.11038 2.96103,2.12823 2.22077,0.92532 6.47724,2.12824 7.95776,2.12824 11.75158,5.64446 3.88635,3.51622 3.88635,9.8084 0,7.31003 -5.92206,11.47398 -5.92205,4.07141 -14.7126,4.07141 -6.01458,0 -11.01132,-1.85064 -4.9042,-1.85064 -8.51295,-5.08927 l 5.92205,-6.66231 q 6.38472,4.81167 13.32462,4.81167 3.97888,0 6.29219,-1.57304 2.40583,-1.57305 2.40583,-4.34901 0,-2.12824 -0.92532,-3.33116 -0.83279,-1.29545 -3.14609,-2.22077 -2.22077,-1.01785 -7.03244,-2.40583 -7.4951,-2.03571 -11.01132,-5.64446 -3.51622,-3.70128 -3.51622,-9.16067 0,-4.07142 2.31331,-7.31004 2.40583,-3.23862 6.66231,-5.08926 4.349,-1.85064 9.90093,-1.85064 z"
             style="font-style:normal;font-variant:normal;font-weight:500;font-stretch:normal;font-family:'Fira Sans';-inkscape-font-specification:'Fira Sans Medium';fill:#353535;fill-opacity:1;stroke-width:2.34944"
             id="path2275"
             inkscape:connector-curvature="0" />
          <path
             d="m 718.54088,-887.49648 q 0,2.86849 0.83279,4.25647 0.92532,1.29545 2.8685,2.03571 l -2.49837,7.86522 q -4.16394,-0.37012 -6.84737,-2.0357 -2.5909,-1.66558 -3.97888,-5.08927 -2.49837,3.70129 -6.29218,5.55193 -3.70129,1.75811 -8.32789,1.75811 -7.31004,0 -11.56651,-4.16394 -4.25648,-4.16395 -4.25648,-10.91879 0,-7.95776 5.73699,-12.1217 5.82952,-4.25648 16.56324,-4.25648 h 6.10712 v -2.77596 q 0,-4.71914 -2.22077,-6.56978 -2.12824,-1.94317 -6.9399,-1.94317 -5.36686,0 -12.9545,2.5909 l -2.77596,-8.0503 q 9.16068,-3.51621 17.76616,-3.51621 18.78401,0 18.78401,16.84083 z m -21.09731,5.73699 q 6.01459,0 9.43827,-6.01459 v -9.90093 h -4.9042 q -11.47398,0 -11.47398,8.51295 0,3.51622 1.75811,5.45939 1.75811,1.94318 5.1818,1.94318 z"
             style="font-style:normal;font-variant:normal;font-weight:500;font-stretch:normal;font-family:'Fira Sans';-inkscape-font-specification:'Fira Sans Medium';fill:#353535;fill-opacity:1;stroke-width:2.34944"
             id="path2277"
             inkscape:connector-curvature="0" />
          <path
             d="m 770.84464,-923.49146 -15.91551,48.94947 h -14.15741 l -16.19312,-48.94947 h 12.86196 l 10.45613,39.41866 10.73372,-39.41866 z"
             style="font-style:normal;font-variant:normal;font-weight:500;font-stretch:normal;font-family:'Fira Sans';-inkscape-font-specification:'Fira Sans Medium';fill:#353535;fill-opacity:1;stroke-width:2.34944"
             id="path2279"
             inkscape:connector-curvature="0" />
          <path
             d="m 817.76275,-900.17338 q 0,0.92532 -0.2776,4.81167 H 786.7645 q 0.55519,7.12497 3.70128,10.17853 3.14609,3.05356 8.32789,3.05356 3.23862,0 6.10712,-1.01786 2.86849,-1.11038 6.10711,-3.33115 l 4.9042,6.75484 q -8.14282,6.56978 -18.13628,6.56978 -11.19639,0 -17.3035,-6.84738 -6.01459,-6.84737 -6.01459,-18.69148 0,-7.49509 2.5909,-13.41715 2.5909,-6.01458 7.4951,-9.34574 4.9042,-3.42368 11.65904,-3.42368 10.27106,0 15.91552,6.56977 5.64446,6.47725 5.64446,18.13629 z m -11.75158,-3.42369 q 0,-12.86196 -9.5308,-12.86196 -4.34901,0 -6.84738,3.23863 -2.40583,3.14609 -2.86849,10.17853 h 19.24667 z"
             style="font-style:normal;font-variant:normal;font-weight:500;font-stretch:normal;font-family:'Fira Sans';-inkscape-font-specification:'Fira Sans Medium';fill:#353535;fill-opacity:1;stroke-width:2.34944"
             id="path2281"
             inkscape:connector-curvature="0" />
        </g>
      </g>
    </g>
    <g
       id="g48143"
       transform="translate(-7.6224829,-15.000034)">
      <path
         style="fill:none;stroke:#e8e8e8;stroke-width:2.00001;stroke-linecap:butt;stroke-linejoin:miter;stroke-miterlimit:4;stroke-dasharray:none;stroke-opacity:1"
         d="m 237.5015,501.05561 10.54848,-11.24685 10.54847,11.24685"
         id="path388163" />
      <path
         style="fill:none;stroke:#e8e8e8;stroke-width:2.00001;stroke-linecap:butt;stroke-linejoin:miter;stroke-miterlimit:4;stroke-dasharray:none;stroke-opacity:1"
         d="m 258.59845,501.05561 10.54848,-11.24685 10.54847,11.24685"
         id="path388165" />
      <path
         style="fill:none;stroke:#e8e8e8;stroke-width:2.00001;stroke-linecap:butt;stroke-linejoin:miter;stroke-miterlimit:4;stroke-dasharray:none;stroke-opacity:1"
         d="m 279.6954,501.05561 10.54848,-11.24685 10.54847,11.24685"
         id="path388167" />
      <path
         style="fill:none;stroke:#e8e8e8;stroke-width:2.00001;stroke-linecap:butt;stroke-linejoin:miter;stroke-miterlimit:4;stroke-dasharray:none;stroke-opacity:1"
         d="m 300.79235,501.05561 10.54848,-11.24685 10.54846,11.24685"
         id="path388169" />
      <path
         style="fill:none;stroke:#e8e8e8;stroke-width:2.00001;stroke-linecap:butt;stroke-linejoin:miter;stroke-miterlimit:4;stroke-dasharray:none;stroke-opacity:1"
         d="m 321.88929,501.05561 10.54848,-11.24685 10.54847,11.24685"
         id="path388171" />
      <path
         style="fill:none;stroke:#e8e8e8;stroke-width:2.00001;stroke-linecap:butt;stroke-linejoin:miter;stroke-miterlimit:4;stroke-dasharray:none;stroke-opacity:1"
         d="m 342.98624,501.05561 10.54848,-11.24685 10.54847,11.24685"
         id="path388173" />
      <path
         style="fill:none;stroke:#e8e8e8;stroke-width:2.00001;stroke-linecap:butt;stroke-linejoin:miter;stroke-miterlimit:4;stroke-dasharray:none;stroke-opacity:1"
         d="m 364.08319,501.05561 10.54848,-11.24685 10.54847,11.24685"
         id="path388175" />
      <path
         style="fill:none;stroke:#e8e8e8;stroke-width:2.00001;stroke-linecap:butt;stroke-linejoin:miter;stroke-miterlimit:4;stroke-dasharray:none;stroke-opacity:1"
         d="m 385.18014,501.05561 10.54848,-11.24685 10.54846,11.24685"
         id="path388177" />
      <path
         style="fill:none;stroke:#e8e8e8;stroke-width:2.00001;stroke-linecap:butt;stroke-linejoin:miter;stroke-miterlimit:4;stroke-dasharray:none;stroke-opacity:1"
         d="m 406.27708,501.05561 10.54848,-11.24685 10.54847,11.24685"
         id="path388179" />
      <path
         style="fill:none;stroke:#e8e8e8;stroke-width:2.00001;stroke-linecap:butt;stroke-linejoin:miter;stroke-miterlimit:4;stroke-dasharray:none;stroke-opacity:1"
         d="m 427.37403,501.05561 10.54848,-11.24685 10.54847,11.24685"
         id="path388181" />
      <path
         style="fill:none;stroke:#e8e8e8;stroke-width:2.00001;stroke-linecap:butt;stroke-linejoin:miter;stroke-miterlimit:4;stroke-dasharray:none;stroke-opacity:1"
         d="m 448.47098,501.05561 10.54848,-11.24685 10.54847,11.24685"
         id="path47818" />
      <path
         style="fill:none;stroke:#e8e8e8;stroke-width:2.00001;stroke-linecap:butt;stroke-linejoin:miter;stroke-miterlimit:4;stroke-dasharray:none;stroke-opacity:1"
         d="m 469.56793,501.05561 10.54848,-11.24685 10.54847,11.24685"
         id="path47820" />
      <path
         style="fill:none;stroke:#e8e8e8;stroke-width:2.00001;stroke-linecap:butt;stroke-linejoin:miter;stroke-miterlimit:4;stroke-dasharray:none;stroke-opacity:1"
         d="m 490.66488,501.05561 10.54848,-11.24685 10.54847,11.24685"
         id="path47822" />
      <path
         style="fill:none;stroke:#e8e8e8;stroke-width:2.00001;stroke-linecap:butt;stroke-linejoin:miter;stroke-miterlimit:4;stroke-dasharray:none;stroke-opacity:1"
         d="m 511.76183,501.05561 10.54848,-11.24685 10.54846,11.24685"
         id="path47824" />
      <path
         style="fill:none;stroke:#e8e8e8;stroke-width:2.00001;stroke-linecap:butt;stroke-linejoin:miter;stroke-miterlimit:4;stroke-dasharray:none;stroke-opacity:1"
         d="m 532.85877,501.05561 10.54848,-11.24685 10.54847,11.24685"
         id="path47826" />
      <path
         style="fill:none;stroke:#e8e8e8;stroke-width:2.00001;stroke-linecap:butt;stroke-linejoin:miter;stroke-miterlimit:4;stroke-dasharray:none;stroke-opacity:1"
         d="m 553.95572,501.05561 10.54848,-11.24685 10.54847,11.24685"
         id="path47828" />
      <path
         style="fill:none;stroke:#e8e8e8;stroke-width:2.00001;stroke-linecap:butt;stroke-linejoin:miter;stroke-miterlimit:4;stroke-dasharray:none;stroke-opacity:1"
         d="m 575.05267,501.05561 10.54848,-11.24685 10.54847,11.24685"
         id="path47830" />
      <path
         style="fill:none;stroke:#e8e8e8;stroke-width:2.00001;stroke-linecap:butt;stroke-linejoin:miter;stroke-miterlimit:4;stroke-dasharray:none;stroke-opacity:1"
         d="m 596.14962,501.05561 10.54848,-11.24685 10.54846,11.24685"
         id="path47832" />
      <path
         style="fill:none;stroke:#e8e8e8;stroke-width:2.00001;stroke-linecap:butt;stroke-linejoin:miter;stroke-miterlimit:4;stroke-dasharray:none;stroke-opacity:1"
         d="m 617.24656,501.05561 10.54848,-11.24685 10.54847,11.24685"
         id="path47834" />
      <path
         style="fill:none;stroke:#e8e8e8;stroke-width:2.00001;stroke-linecap:butt;stroke-linejoin:miter;stroke-miterlimit:4;stroke-dasharray:none;stroke-opacity:1"
         d="m 638.34351,501.05561 10.54848,-11.24685 10.54847,11.24685"
         id="path47836" />
      <path
         style="fill:none;stroke:#e8e8e8;stroke-width:2.00001;stroke-linecap:butt;stroke-linejoin:miter;stroke-miterlimit:4;stroke-dasharray:none;stroke-opacity:1"
         d="m 659.44046,501.05561 10.54848,-11.24685 10.54847,11.24685"
         id="path47840" />
      <path
         style="fill:none;stroke:#e8e8e8;stroke-width:2.00001;stroke-linecap:butt;stroke-linejoin:miter;stroke-miterlimit:4;stroke-dasharray:none;stroke-opacity:1"
         d="m 680.53741,501.05561 10.54848,-11.24685 10.54847,11.24685"
         id="path47842" />
      <path
         style="fill:none;stroke:#e8e8e8;stroke-width:2.00001;stroke-linecap:butt;stroke-linejoin:miter;stroke-miterlimit:4;stroke-dasharray:none;stroke-opacity:1"
         d="m 701.63436,501.05561 10.54848,-11.24685 10.54847,11.24685"
         id="path47844" />
      <path
         style="fill:none;stroke:#e8e8e8;stroke-width:2.00001;stroke-linecap:butt;stroke-linejoin:miter;stroke-miterlimit:4;stroke-dasharray:none;stroke-opacity:1"
         d="m 722.73131,501.05561 10.54848,-11.24685 10.54846,11.24685"
         id="path47846" />
      <path
         style="fill:none;stroke:#e8e8e8;stroke-width:2.00001;stroke-linecap:butt;stroke-linejoin:miter;stroke-miterlimit:4;stroke-dasharray:none;stroke-opacity:1"
         d="m 743.82825,501.05561 10.54848,-11.24685 10.54847,11.24685"
         id="path47848" />
      <path
         style="fill:none;stroke:#e8e8e8;stroke-width:2.00001;stroke-linecap:butt;stroke-linejoin:miter;stroke-miterlimit:4;stroke-dasharray:none;stroke-opacity:1"
         d="m 764.9252,501.05561 10.54848,-11.24685 10.54847,11.24685"
         id="path47850" />
      <path
         style="fill:none;stroke:#e8e8e8;stroke-width:2.00001;stroke-linecap:butt;stroke-linejoin:miter;stroke-miterlimit:4;stroke-dasharray:none;stroke-opacity:1"
         d="m 786.02215,501.05561 10.54848,-11.24685 10.54847,11.24685"
         id="path47852" />
      <path
         style="fill:none;stroke:#e8e8e8;stroke-width:2.00001;stroke-linecap:butt;stroke-linejoin:miter;stroke-miterlimit:4;stroke-dasharray:none;stroke-opacity:1"
         d="m 807.1191,501.05561 10.54848,-11.24685 10.54846,11.24685"
         id="path47854" />
      <path
         style="fill:none;stroke:#e8e8e8;stroke-width:2.00001;stroke-linecap:butt;stroke-linejoin:miter;stroke-miterlimit:4;stroke-dasharray:none;stroke-opacity:1"
         d="m 828.21604,501.05561 10.54848,-11.24685 10.54847,11.24685"
         id="path47856" />
      <path
         style="fill:none;stroke:#e8e8e8;stroke-width:2.00001;stroke-linecap:butt;stroke-linejoin:miter;stroke-miterlimit:4;stroke-dasharray:none;stroke-opacity:1"
         d="m 849.31299,501.05561 10.54848,-11.24685 10.54847,11.24685"
         id="path47858" />
      <path
         style="fill:none;stroke:#e8e8e8;stroke-width:2.00001;stroke-linecap:butt;stroke-linejoin:miter;stroke-miterlimit:4;stroke-dasharray:none;stroke-opacity:1"
         d="m 870.40994,501.05561 10.54848,-11.24685 10.54847,11.24685"
         id="path47862" />
      <path
         style="fill:none;stroke:#e8e8e8;stroke-width:2.00001;stroke-linecap:butt;stroke-linejoin:miter;stroke-miterlimit:4;stroke-dasharray:none;stroke-opacity:1"
         d="m 891.50689,501.05561 10.54848,-11.24685 10.54847,11.24685"
         id="path47864" />
      <path
         style="fill:none;stroke:#e8e8e8;stroke-width:2.00001;stroke-linecap:butt;stroke-linejoin:miter;stroke-miterlimit:4;stroke-dasharray:none;stroke-opacity:1"
         d="m 912.60384,501.05561 10.54848,-11.24685 10.54847,11.24685"
         id="path47866" />
      <path
         style="fill:none;stroke:#e8e8e8;stroke-width:2.00001;stroke-linecap:butt;stroke-linejoin:miter;stroke-miterlimit:4;stroke-dasharray:none;stroke-opacity:1"
         d="m 933.70079,501.05561 10.54848,-11.24685 10.54846,11.24685"
         id="path47868" />
      <path
         style="fill:none;stroke:#e8e8e8;stroke-width:2.00001;stroke-linecap:butt;stroke-linejoin:miter;stroke-miterlimit:4;stroke-dasharray:none;stroke-opacity:1"
         d="m 954.79773,501.05561 10.54848,-11.24685 10.54847,11.24685"
         id="path47870" />
    </g>
    <path
       style="color:#000000;font-style:normal;font-variant:normal;font-weight:normal;font-stretch:normal;font-size:medium;line-height:normal;font-family:sans-serif;font-variant-ligatures:normal;font-variant-position:normal;font-variant-caps:normal;font-variant-numeric:normal;font-variant-alternates:normal;font-feature-settings:normal;text-indent:0;text-align:start;text-decoration:none;text-decoration-line:none;text-decoration-style:solid;text-decoration-color:#000000;letter-spacing:normal;word-spacing:normal;text-transform:none;writing-mode:lr-tb;direction:ltr;text-orientation:mixed;dominant-baseline:auto;baseline-shift:baseline;text-anchor:start;white-space:normal;shape-padding:0;clip-rule:nonzero;display:inline;overflow:visible;visibility:visible;isolation:auto;mix-blend-mode:normal;color-interpolation:sRGB;color-interpolation-filters:linearRGB;solid-color:#000000;solid-opacity:1;vector-effect:none;fill:#e8e8e8;fill-opacity:1;fill-rule:nonzero;stroke:none;stroke-width:5.95941;stroke-linecap:square;stroke-linejoin:miter;stroke-miterlimit:4;stroke-dasharray:none;stroke-dashoffset:0;stroke-opacity:1;color-rendering:auto;image-rendering:auto;shape-rendering:auto;text-rendering:auto;enable-background:accumulate"
       d="m 981.73024,81.398414 -16.6972,9.69331 v 19.357386 l 16.6972,9.69339 16.6952,-9.69339 V 91.091724 Z m 0,6.8691 10.7735,6.25591 v 12.492106 l -10.7735,6.25587 -10.7773,-6.25587 V 94.523424 Z"
       id="path5966-5"
       inkscape:connector-curvature="0" />
    <path
       inkscape:connector-curvature="0"
       id="path6007-3"
       d="m 73.652449,264.14256 c -5.56725,3.22791 -11.13109,6.4642 -16.69758,9.69339 0,6.45253 0,12.9049 0,19.35741 5.56573,3.23138 11.13147,6.4622 16.69758,9.69328 5.56497,-3.23108 11.12995,-6.4622 16.6953,-9.69328 0,-6.45251 0,-12.90488 0,-19.35741 -5.5646,-3.23248 -11.12995,-6.46269 -16.6953,-9.69339 z m 0,6.88868 c 3.00548,1.74543 6.01133,3.49092 9.01719,5.23631 -3.58526,2.08199 -7.17052,4.1641 -10.75578,6.24612 0,4.1582 0,8.31639 0,12.47459 -2.99981,-1.74221 -6,-3.48442 -8.99981,-5.22659 0,-3.4922 0,-6.9843 0,-10.47651 1.68491,0.97592 3.36983,1.95179 5.05474,2.9277 0.58054,-1.0032 1.16145,-2.00651 1.74199,-3.00971 -1.69134,-0.9792 -3.38268,-1.95829 -5.0744,-2.93749 3.00548,-1.74482 6.01059,-3.4896 9.01607,-5.23442 z m 10.73612,8.25971 c 0,3.49092 0,6.9818 0,10.47273 -2.99868,1.74208 -5.99886,3.48169 -8.99792,5.22265 0,-3.49017 0,-6.98047 0,-10.47068 2.99906,-1.7416 5.99849,-3.4831 8.99792,-5.2247 z"
       style="color:#000000;font-style:normal;font-variant:normal;font-weight:normal;font-stretch:normal;font-size:medium;line-height:normal;font-family:sans-serif;font-variant-ligatures:normal;font-variant-position:normal;font-variant-caps:normal;font-variant-numeric:normal;font-variant-alternates:normal;font-feature-settings:normal;text-indent:0;text-align:start;text-decoration:none;text-decoration-line:none;text-decoration-style:solid;text-decoration-color:#000000;letter-spacing:normal;word-spacing:normal;text-transform:none;writing-mode:lr-tb;direction:ltr;text-orientation:mixed;dominant-baseline:auto;baseline-shift:baseline;text-anchor:start;white-space:normal;shape-padding:0;clip-rule:nonzero;display:inline;overflow:visible;visibility:visible;isolation:auto;mix-blend-mode:normal;color-interpolation:sRGB;color-interpolation-filters:linearRGB;solid-color:#000000;solid-opacity:1;vector-effect:none;fill:#e8e8e8;fill-opacity:1;fill-rule:nonzero;stroke:none;stroke-width:5.95941;stroke-linecap:square;stroke-linejoin:miter;stroke-miterlimit:4;stroke-dasharray:none;stroke-dashoffset:0;stroke-opacity:1;color-rendering:auto;image-rendering:auto;shape-rendering:auto;text-rendering:auto;enable-background:accumulate" />
    <path
       style="color:#000000;font-style:normal;font-variant:normal;font-weight:normal;font-stretch:normal;font-size:medium;line-height:normal;font-family:sans-serif;font-variant-ligatures:normal;font-variant-position:normal;font-variant-caps:normal;font-variant-numeric:normal;font-variant-alternates:normal;font-feature-settings:normal;text-indent:0;text-align:start;text-decoration:none;text-decoration-line:none;text-decoration-style:solid;text-decoration-color:#000000;letter-spacing:normal;word-spacing:normal;text-transform:none;writing-mode:lr-tb;direction:ltr;text-orientation:mixed;dominant-baseline:auto;baseline-shift:baseline;text-anchor:start;white-space:normal;shape-padding:0;clip-rule:nonzero;display:inline;overflow:visible;visibility:visible;isolation:auto;mix-blend-mode:normal;color-interpolation:sRGB;color-interpolation-filters:linearRGB;solid-color:#000000;solid-opacity:1;vector-effect:none;fill:#e8e8e8;fill-opacity:1;fill-rule:nonzero;stroke:none;stroke-width:5.95941;stroke-linecap:square;stroke-linejoin:miter;stroke-miterlimit:4;stroke-dasharray:none;stroke-dashoffset:0;stroke-opacity:1;color-rendering:auto;image-rendering:auto;shape-rendering:auto;text-rendering:auto;enable-background:accumulate"
       d="m 1088.1838,470.06854 -16.6972,9.69332 v 19.35738 l 16.6972,9.69339 16.6953,-9.69339 v -19.35738 z m 0,6.86911 10.7735,6.25591 v 12.49209 l -10.7735,6.25588 -10.7773,-6.25588 v -12.49209 z"
       id="path176389"
       inkscape:connector-curvature="0" />
    <g
       id="g210841"
       transform="matrix(3.7795276,0,0,3.7795276,-258.06667,-266.54013)">
      <path
         style="fill:none;fill-opacity:1;stroke:#e8e8e8;stroke-width:0.529167;stroke-linecap:butt;stroke-linejoin:miter;stroke-miterlimit:4;stroke-dasharray:none;stroke-opacity:1"
         d="m 100.9586,89.417332 5.12684,-5.12684"
         id="path208359" />
      <path
         style="fill:none;fill-opacity:1;stroke:#e8e8e8;stroke-width:0.529167;stroke-linecap:butt;stroke-linejoin:miter;stroke-miterlimit:4;stroke-dasharray:none;stroke-opacity:1"
         d="m 100.9586,84.290492 5.12684,5.12684"
         id="path208441" />
    </g>
    <g
       id="g210847"
       transform="matrix(3.7795276,0,0,3.7795276,715.23317,-11.383086)">
      <path
         style="fill:none;fill-opacity:1;stroke:#e8e8e8;stroke-width:0.529167;stroke-linecap:butt;stroke-linejoin:miter;stroke-miterlimit:4;stroke-dasharray:none;stroke-opacity:1"
         d="m 100.9586,89.417332 5.12684,-5.12684"
         id="path210843" />
      <path
         style="fill:none;fill-opacity:1;stroke:#e8e8e8;stroke-width:0.529167;stroke-linecap:butt;stroke-linejoin:miter;stroke-miterlimit:4;stroke-dasharray:none;stroke-opacity:1"
         d="m 100.9586,84.290492 5.12684,5.12684"
         id="path210845" />
    </g>
    <g
       id="g210853"
       transform="matrix(3.7795276,0,0,3.7795276,-259.0945,144.57355)">
      <path
         style="fill:none;fill-opacity:1;stroke:#e8e8e8;stroke-width:0.529167;stroke-linecap:butt;stroke-linejoin:miter;stroke-miterlimit:4;stroke-dasharray:none;stroke-opacity:1"
         d="m 100.9586,89.417332 5.12684,-5.12684"
         id="path210849" />
      <path
         style="fill:none;fill-opacity:1;stroke:#e8e8e8;stroke-width:0.529167;stroke-linecap:butt;stroke-linejoin:miter;stroke-miterlimit:4;stroke-dasharray:none;stroke-opacity:1"
         d="m 100.9586,84.290492 5.12684,5.12684"
         id="path210851" />
    </g>
    <path
       inkscape:connector-curvature="0"
       id="path33974"
       d="m 892.7824,246.57355 c -5.56725,3.22791 -11.13109,6.4642 -16.69758,9.69339 0,6.45253 0,12.9049 0,19.35741 5.56573,3.23138 11.13147,6.4622 16.69758,9.69328 5.56497,-3.23108 11.12995,-6.4622 16.6953,-9.69328 0,-6.45251 0,-12.90488 0,-19.35741 -5.5646,-3.23248 -11.12995,-6.46269 -16.6953,-9.69339 z m 0,6.88868 c 3.00548,1.74543 6.01133,3.49092 9.01719,5.23631 -3.58526,2.08199 -7.17052,4.1641 -10.75578,6.24612 0,4.1582 0,8.31639 0,12.47459 -2.99981,-1.74221 -6,-3.48442 -8.99981,-5.22659 0,-3.4922 0,-6.9843 0,-10.47651 1.68491,0.97592 3.36983,1.95179 5.05474,2.9277 0.58054,-1.0032 1.16145,-2.00651 1.74199,-3.00971 -1.69134,-0.9792 -3.38268,-1.95829 -5.0744,-2.93749 3.00548,-1.74482 6.01059,-3.4896 9.01607,-5.23442 z m 10.73612,8.25971 c 0,3.49092 0,6.9818 0,10.47273 -2.99868,1.74208 -5.99886,3.48169 -8.99792,5.22265 0,-3.49017 0,-6.98047 0,-10.47068 2.99906,-1.7416 5.99849,-3.4831 8.99792,-5.2247 z"
       style="color:#000000;font-style:normal;font-variant:normal;font-weight:normal;font-stretch:normal;font-size:medium;line-height:normal;font-family:sans-serif;font-variant-ligatures:normal;font-variant-position:normal;font-variant-caps:normal;font-variant-numeric:normal;font-variant-alternates:normal;font-feature-settings:normal;text-indent:0;text-align:start;text-decoration:none;text-decoration-line:none;text-decoration-style:solid;text-decoration-color:#000000;letter-spacing:normal;word-spacing:normal;text-transform:none;writing-mode:lr-tb;direction:ltr;text-orientation:mixed;dominant-baseline:auto;baseline-shift:baseline;text-anchor:start;white-space:normal;shape-padding:0;clip-rule:nonzero;display:inline;overflow:visible;visibility:visible;isolation:auto;mix-blend-mode:normal;color-interpolation:sRGB;color-interpolation-filters:linearRGB;solid-color:#000000;solid-opacity:1;vector-effect:none;fill:#e8e8e8;fill-opacity:1;fill-rule:nonzero;stroke:none;stroke-width:5.95941;stroke-linecap:square;stroke-linejoin:miter;stroke-miterlimit:4;stroke-dasharray:none;stroke-dashoffset:0;stroke-opacity:1;color-rendering:auto;image-rendering:auto;shape-rendering:auto;text-rendering:auto;enable-background:accumulate" />
    <g
       id="g33980"
       transform="matrix(3.7795276,0,0,3.7795276,341.78834,-201.25861)">
      <path
         style="fill:none;fill-opacity:1;stroke:#e8e8e8;stroke-width:0.529167;stroke-linecap:butt;stroke-linejoin:miter;stroke-miterlimit:4;stroke-dasharray:none;stroke-opacity:1"
         d="m 100.9586,89.417332 5.12684,-5.12684"
         id="path33976" />
      <path
         style="fill:none;fill-opacity:1;stroke:#e8e8e8;stroke-width:0.529167;stroke-linecap:butt;stroke-linejoin:miter;stroke-miterlimit:4;stroke-dasharray:none;stroke-opacity:1"
         d="m 100.9586,84.290492 5.12684,5.12684"
         id="path33978" />
    </g>
  </g>
</svg>
