<?xml version="1.0" encoding="UTF-8"?>
<!-- Created with Inkscape (http://www.inkscape.org/) -->
<svg width="230" height="53.74" version="1.1" viewBox="0 0 60.854 14.219" xmlns="http://www.w3.org/2000/svg">
 <g transform="translate(-19.125 -13.344)">
  <g transform="translate(-70.476 -35.809)" fill="#353535">
   <path d="m96.504 49.154-0.33974 0.19706-3.4502 2.0034v3.6156l-3.1138 1.8079v4.3944l3.7902 2.2005 3.1136-1.8077 3.1136 1.8077 3.1136-1.8077 3.1138 1.8077 3.79-2.2005v-4.3944l-3.1136-1.8079v-3.6156l-3.7902-2.2005-3.1136 1.8077zm6.2271 1.5642 2.0472 1.1885-2.4418 1.4177v3.1576l-2.3244-1.3497v-2.704l1.429 0.82788 0.39566-0.68278-1.1518-0.66715zm-6.2271 2.25e-4 2.047 1.1885-2.4416 1.4175v3.1576l-2.0426-1.1859v-2.7045l1.1471 0.6645 0.39544-0.68278-1.1515-0.66715zm2.719 1.7108v2.7032l-2.3244 1.3497v-2.7032zm5.9455 0.16359v2.7031l-2.0428 1.1861v-2.7032zm-5.551 3.223 2.328 1.3515-2.7225 1.5807v2.8315l-2.3244-1.3495v-2.3782l1.429 0.82788 0.39544-0.683-1.4325-0.82964zm-5.9464 0.16293 2.047 1.1885-2.7223 1.5807v2.8317l-2.0428-1.1861v-2.3784l1.1471 0.6645 0.39566-0.683-1.1518-0.66693zm11.893 0 2.328 1.3515-2.4418 1.4177v2.8317l-2.3247-1.3499v-2.3779l1.4292 0.82788 0.39544-0.683-1.4327-0.82986zm-9.4548 1.874v2.3773l-2.3244 1.3495v-2.3771zm6.2271 0v2.3773l-2.3244 1.3495v-2.3771zm5.9455 0.16359v2.3773l-2.0426 1.1861v-2.3773z" color="#000000" color-rendering="auto" dominant-baseline="auto" image-rendering="auto" shape-rendering="auto" solid-color="#000000" style="font-feature-settings:normal;font-variant-alternates:normal;font-variant-caps:normal;font-variant-ligatures:normal;font-variant-numeric:normal;font-variant-position:normal;isolation:auto;mix-blend-mode:normal;shape-padding:0;text-decoration-color:#000000;text-decoration-line:none;text-decoration-style:solid;text-indent:0;text-orientation:mixed;text-transform:none;white-space:normal"/>
   <g transform="matrix(.11273 0 0 .11273 58.266 158.47)" stroke-width="1.1656">
    <g fill="#353535" stroke-width="2.6963" aria-label="Unisave">
     <path d="m545.75-895.45q0 6.4772-2.776 11.567-2.6834 4.9967-8.1428 7.8652-5.3669 2.8685-12.954 2.8685-11.474 0-17.581-6.0146-6.1071-6.1071-6.1071-16.286v-43.027h12.214v42.38q0 6.7548 2.776 10.086 2.8685 3.3312 8.698 3.3312 5.9221 0 8.698-3.3312 2.8685-3.3312 2.8685-10.086v-42.38h12.307z"/>
     <path d="m585.56-924.88q6.5698 0 10.179 3.9789 3.7013 3.8864 3.7013 10.919v35.44h-11.844v-33.589q0-4.349-1.573-6.1071-1.4805-1.7581-4.4415-1.7581-3.0536 0-5.5519 1.9432-2.4058 1.8506-4.7191 5.4594v34.052h-11.844v-48.949h10.271l0.92532 6.3847q6.0146-7.7727 14.898-7.7727z"/>
     <path d="m624.99-923.49v48.949h-11.844v-48.949zm-6.0146-24.799q3.3312 0 5.3669 2.1282 2.1282 2.0357 2.1282 5.0893t-2.1282 5.0893q-2.0357 2.0357-5.3669 2.0357-3.2386 0-5.3669-2.0357-2.0357-2.0357-2.0357-5.0893t2.0357-5.0893q2.1282-2.1282 5.3669-2.1282z"/>
     <path d="m654.62-924.88q9.9009 0 17.396 5.8295l-4.6266 6.9399q-6.2922-3.9789-12.307-3.9789-3.5162 0-5.4594 1.388-1.9432 1.2954-1.9432 3.5162 0 1.6656 0.83279 2.776 0.83279 1.1104 2.961 2.1282 2.2208 0.92532 6.4772 2.1282 7.9578 2.1282 11.752 5.6445 3.8864 3.5162 3.8864 9.8084 0 7.31-5.9221 11.474-5.922 4.0714-14.713 4.0714-6.0146 0-11.011-1.8506-4.9042-1.8506-8.513-5.0893l5.922-6.6623q6.3847 4.8117 13.325 4.8117 3.9789 0 6.2922-1.573 2.4058-1.573 2.4058-4.349 0-2.1282-0.92532-3.3312-0.83279-1.2954-3.1461-2.2208-2.2208-1.0178-7.0324-2.4058-7.4951-2.0357-11.011-5.6445-3.5162-3.7013-3.5162-9.1607 0-4.0714 2.3133-7.31 2.4058-3.2386 6.6623-5.0893 4.349-1.8506 9.9009-1.8506z"/>
     <path d="m718.54-887.5q0 2.8685 0.83279 4.2565 0.92532 1.2954 2.8685 2.0357l-2.4984 7.8652q-4.1639-0.37012-6.8474-2.0357-2.5909-1.6656-3.9789-5.0893-2.4984 3.7013-6.2922 5.5519-3.7013 1.7581-8.3279 1.7581-7.31 0-11.567-4.1639-4.2565-4.164-4.2565-10.919 0-7.9578 5.737-12.122 5.8295-4.2565 16.563-4.2565h6.1071v-2.776q0-4.7191-2.2208-6.5698-2.1282-1.9432-6.9399-1.9432-5.3669 0-12.954 2.5909l-2.776-8.0503q9.1607-3.5162 17.766-3.5162 18.784 0 18.784 16.841zm-21.097 5.737q6.0146 0 9.4383-6.0146v-9.9009h-4.9042q-11.474 0-11.474 8.513 0 3.5162 1.7581 5.4594 1.7581 1.9432 5.1818 1.9432z"/>
     <path d="m770.84-923.49-15.916 48.949h-14.157l-16.193-48.949h12.862l10.456 39.419 10.734-39.419z"/>
     <path d="m817.76-900.17q0 0.92532-0.2776 4.8117h-30.721q0.55519 7.125 3.7013 10.179t8.3279 3.0536q3.2386 0 6.1071-1.0179 2.8685-1.1104 6.1071-3.3312l4.9042 6.7548q-8.1428 6.5698-18.136 6.5698-11.196 0-17.304-6.8474-6.0146-6.8474-6.0146-18.691 0-7.4951 2.5909-13.417 2.5909-6.0146 7.4951-9.3457 4.9042-3.4237 11.659-3.4237 10.271 0 15.916 6.5698 5.6445 6.4772 5.6445 18.136zm-11.752-3.4237q0-12.862-9.5308-12.862-4.349 0-6.8474 3.2386-2.4058 3.1461-2.8685 10.179h19.247z"/>
    </g>
   </g>
  </g>
 </g>
</svg>
